<?xml version="1.0" encoding="UTF-8" standalone="no"?><!DOCTYPE svg PUBLIC "-//W3C//DTD SVG 1.1//EN" "http://www.w3.org/Graphics/SVG/1.1/DTD/svg11.dtd"><svg width="100%" height="100%" viewBox="0 0 18 19" version="1.1" xmlns="http://www.w3.org/2000/svg" xmlns:xlink="http://www.w3.org/1999/xlink" xml:space="preserve" xmlns:serif="http://www.serif.com/" style="fill-rule:evenodd;clip-rule:evenodd;stroke-linejoin:round;stroke-miterlimit:2;"><g id="concepts"><path d="M3.242,12.325l-1.361,4.083l3.723,-1.083l10.782,-10.365c0.337,-0.836 0.153,-1.802 -0.478,-2.437c-0.664,-0.668 -1.705,-0.84 -2.567,-0.438l-10.099,10.24Zm-2.486,5.891c-0.194,0 -0.384,-0.078 -0.523,-0.222c-0.187,-0.195 -0.251,-0.476 -0.166,-0.732l1.852,-5.556c0.035,-0.105 0.094,-0.2 0.171,-0.279l10.303,-10.446c0.053,-0.053 0.113,-0.098 0.179,-0.133c1.437,-0.756 3.232,-0.49 4.365,0.653c1.087,1.095 1.374,2.78 0.713,4.191c-0.039,0.079 -0.091,0.152 -0.155,0.214l-11.015,10.588c-0.084,0.08 -0.187,0.14 -0.299,0.173l-5.223,1.52c-0.066,0.02 -0.135,0.029 -0.202,0.029" style="fill:#0072c6;fill-rule:nonzero;"/><path d="M11.56,2.89l3.844,4.026l-1.049,1.001l-3.844,-4.026l1.049,-1.001Z" style="fill:#0072c6;"/><rect x="0.162" y="1.513" width="8.855" height="1.451" style="fill:#0072c6;"/><rect x="0.162" y="4.291" width="6.445" height="1.451" style="fill:#0072c6;"/><rect x="0.162" y="6.855" width="4.024" height="1.451" style="fill:#0072c6;"/></g></svg>