<?xml version="1.0" encoding="UTF-8" standalone="no"?><!DOCTYPE svg PUBLIC "-//W3C//DTD SVG 1.1//EN" "http://www.w3.org/Graphics/SVG/1.1/DTD/svg11.dtd"><svg width="100%" height="100%" viewBox="0 0 16 15" version="1.1" xmlns="http://www.w3.org/2000/svg" xmlns:xlink="http://www.w3.org/1999/xlink" xml:space="preserve" xmlns:serif="http://www.serif.com/" style="fill-rule:evenodd;clip-rule:evenodd;stroke-linejoin:round;stroke-miterlimit:2;"><g id="inbox"><path d="M2.541,1.444c-0.543,-0 -0.984,0.441 -0.984,0.983l-0,10.083c-0,0.543 0.441,0.984 0.984,0.984l10.083,-0c0.542,-0 0.983,-0.441 0.983,-0.984l-0,-10.083c-0,-0.542 -0.441,-0.983 -0.983,-0.983l-10.083,-0Zm10.083,13.451l-10.083,-0c-1.315,-0 -2.385,-1.07 -2.385,-2.385l-0,-10.083c-0,-1.314 1.07,-2.384 2.385,-2.384l10.083,-0c1.314,-0 2.384,1.07 2.384,2.384l-0,10.083c-0,1.315 -1.07,2.385 -2.384,2.385" style="fill:#0072c6;fill-rule:nonzero;"/><path d="M7.681,11.979c-0.08,0 -0.16,-0.003 -0.239,-0.008c-1.67,-0.117 -3.041,-1.37 -3.412,-3.02l-3.17,0.02l-0.008,-1.401l4.425,-0.026l0.06,0.664c0.069,1.245 1.037,2.284 2.203,2.366c0.594,0.041 1.237,-0.19 1.722,-0.638c0.527,-0.487 0.821,-1.149 0.828,-1.868l0.007,-0.697l4.215,0.026l-0.009,1.401l-2.882,-0.019c-0.159,0.833 -0.58,1.605 -1.209,2.186c-0.706,0.651 -1.617,1.014 -2.531,1.014" style="fill:#0072c6;fill-rule:nonzero;"/></g></svg>