<?xml version="1.0" encoding="UTF-8" standalone="no"?><!DOCTYPE svg PUBLIC "-//W3C//DTD SVG 1.1//EN" "http://www.w3.org/Graphics/SVG/1.1/DTD/svg11.dtd"><svg width="100%" height="100%" viewBox="0 0 17 17" version="1.1" xmlns="http://www.w3.org/2000/svg" xmlns:xlink="http://www.w3.org/1999/xlink" xml:space="preserve" xmlns:serif="http://www.serif.com/" style="fill-rule:evenodd;clip-rule:evenodd;stroke-linejoin:round;stroke-miterlimit:2;"><g id="junk_2"><g><path d="M12.182,1.804l-7.63,-0l0.732,0.754l-0.691,0.732l7.589,-0c0.733,-0 1.319,0.597 1.319,1.33l-0,0.314c0.544,0.261 1.047,0.596 1.497,0.984l-0,-1.298c-0,-1.56 -1.267,-2.816 -2.816,-2.816m-8.185,9.745l-1.12,-0c-0.722,-0 -1.319,-0.597 -1.319,-1.33l-0,-5.599c-0,-0.136 0.021,-0.273 0.052,-0.398c0.095,-0.262 0.251,-0.492 0.471,-0.66l-0.691,-0l0.021,-0.795c0.011,-0.178 0.063,-0.461 0.231,-0.68c-0.346,0.167 -0.649,0.408 -0.89,0.701c-0.429,0.492 -0.691,1.13 -0.691,1.832l-0,5.599c-0,1.55 1.267,2.816 2.816,2.816l1.402,-0c-0.146,-0.481 -0.251,-0.973 -0.282,-1.486" style="fill:#0072c6;fill-rule:nonzero;"/><path d="M4.336,3.568l-2.254,-0.007l-0.691,-0l0.017,-0.796c0.013,-0.174 0.062,-0.46 0.233,-0.674c0.027,-0.04 0.063,-0.076 0.099,-0.109c0.171,-0.145 0.309,-0.22 0.596,-0.22l2.174,-0l0.04,0.039l0.737,0.754l-0.691,0.737l-0.26,0.276Zm2.056,-1.767l-1.329,-1.355l-2.727,-0c-0.731,-0 -1.158,0.286 -1.451,0.536c-0.461,0.398 -0.744,1.003 -0.79,1.708l-0.043,2.181l0.013,-0l1.491,0.003l3.346,0.01l1.5,-1.592l0.711,-0.754l-0.721,-0.737Z" style="fill:#0072c6;fill-rule:nonzero;"/><path d="M10.689,6.762c-2.378,-0 -4.312,1.934 -4.312,4.31c0,2.378 1.934,4.312 4.312,4.312c2.378,-0 4.311,-1.934 4.311,-4.312c0,-2.376 -1.933,-4.31 -4.311,-4.31m0,10.088c-3.185,-0 -5.777,-2.592 -5.777,-5.778c0,-3.185 2.592,-5.776 5.777,-5.776c3.185,-0 5.777,2.591 5.777,5.776c0,3.186 -2.592,5.778 -5.777,5.778" style="fill:#0072c6;fill-rule:nonzero;"/></g><path d="M7.095,15.345c-0.187,0 -0.375,-0.072 -0.518,-0.215c-0.286,-0.286 -0.286,-0.75 0,-1.036l7.144,-7.143c0.286,-0.286 0.75,-0.286 1.036,0c0.286,0.286 0.286,0.75 0,1.036l-7.144,7.143c-0.143,0.143 -0.331,0.215 -0.518,0.215" style="fill:#0072c6;fill-rule:nonzero;"/></g></svg>