<?xml version="1.0" encoding="UTF-8" standalone="no"?><!DOCTYPE svg PUBLIC "-//W3C//DTD SVG 1.1//EN" "http://www.w3.org/Graphics/SVG/1.1/DTD/svg11.dtd"><svg width="100%" height="100%" viewBox="0 0 18 18" version="1.1" xmlns="http://www.w3.org/2000/svg" xmlns:xlink="http://www.w3.org/1999/xlink" xml:space="preserve" xmlns:serif="http://www.serif.com/" style="fill-rule:evenodd;clip-rule:evenodd;stroke-linejoin:round;stroke-miterlimit:2;"><g id="sent"><path d="M2.176,2.441l1.962,6.528c0.04,0.131 0.041,0.272 0.004,0.403l-1.854,6.504l13.127,-6.699l-13.239,-6.736Zm-1.031,15.544c-0.163,-0 -0.325,-0.056 -0.457,-0.164c-0.22,-0.181 -0.313,-0.477 -0.234,-0.751l2.248,-7.889l-2.385,-7.935c-0.083,-0.276 0.007,-0.574 0.227,-0.759c0.22,-0.183 0.53,-0.22 0.787,-0.088l15.992,8.137c0.241,0.122 0.392,0.369 0.393,0.64c-0,0.27 -0.152,0.517 -0.392,0.64l-15.852,8.091c-0.103,0.052 -0.216,0.078 -0.327,0.078" style="fill:#0072c6;fill-rule:nonzero;"/><path d="M11.071,9.87l-7.62,0c-0.397,0 -0.719,-0.322 -0.719,-0.719c-0,-0.397 0.322,-0.719 0.719,-0.719l7.62,0c0.397,0 0.719,0.322 0.719,0.719c-0,0.397 -0.322,0.719 -0.719,0.719" style="fill:#0072c6;fill-rule:nonzero;"/></g></svg>
