<?xml version="1.0" encoding="UTF-8" standalone="no"?><!DOCTYPE svg PUBLIC "-//W3C//DTD SVG 1.1//EN" "http://www.w3.org/Graphics/SVG/1.1/DTD/svg11.dtd"><svg width="100%" height="100%" viewBox="0 0 19 19" version="1.1" xmlns="http://www.w3.org/2000/svg" xmlns:xlink="http://www.w3.org/1999/xlink" xml:space="preserve" xmlns:serif="http://www.serif.com/" style="fill-rule:evenodd;clip-rule:evenodd;stroke-linejoin:round;stroke-miterlimit:2;"><g><path d="M0.034,9.308c-0,5.135 4.163,9.298 9.298,9.298c5.135,0 9.298,-4.163 9.298,-9.298c-0,-5.135 -4.163,-9.298 -9.298,-9.298c-5.135,0 -9.298,4.163 -9.298,9.298m9.317,-1.971c1.08,0.01 1.953,0.888 1.953,1.971c-0,1.083 -0.873,1.961 -1.953,1.971l-0,-3.942Zm-0,5.633c2.014,-0.011 3.644,-1.645 3.644,-3.662c-0,-2.016 -1.63,-3.651 -3.644,-3.662l-0,-1.127c2.636,0.011 4.771,2.15 4.771,4.789c-0,2.639 -2.135,4.779 -4.771,4.789l-0,-1.127Zm-0,3.945l-0,-1.127c3.57,-0.01 6.461,-2.907 6.461,-6.48c-0,-3.573 -2.891,-6.469 -6.461,-6.48l-0,-1.127c4.193,0.011 7.588,3.412 7.588,7.607c-0,4.195 -3.395,7.597 -7.588,7.607" style="fill:#c069ff;"/></g></svg>